<?xml version="1.0" encoding="UTF-8"?>
<svg width="400px" height="400px" viewBox="0 0 400 400" version="1.1" xmlns="http://www.w3.org/2000/svg" xmlns:xlink="http://www.w3.org/1999/xlink">
    <!-- Generator: Sketch 54.1 (76490) - https://sketchapp.com -->
    <title>favicon</title>
    <desc>Created with Sketch.</desc>
    <defs>
        <path d="M164,180.756105 C165.91772,180.262518 167.928203,180 170,180 L283.5,180 L283.5,95 C283.5,81.745166 294.245166,71 307.5,71 C320.754834,71 331.5,81.745166 331.5,95 L331.5,315 C331.5,328.254834 320.754834,339 307.5,339 C294.245166,339 283.5,328.254834 283.5,315 L283.5,228 L170,228 C167.928203,228 165.91772,227.737482 164,227.243895 L164,266.23559 C164,266.803426 163.982888,267.366972 163.949188,267.925665 C163.982888,268.446098 164,268.971051 164,269.5 C164,307.88379 132.88379,339 94.5,339 C56.1162099,339 25,307.88379 25,269.5 C25,256.245166 35.745166,245.5 49,245.5 C62.254834,245.5 73,256.245166 73,269.5 C73,281.374122 82.6258779,291 94.5,291 C106.374122,291 116,281.374122 116,269.5 C116,268.971051 116.017112,268.446098 116.050812,267.925665 C116.017112,267.366972 116,266.803426 116,266.23559 L116,119 L75,119 C61.745166,119 51,108.254834 51,95 C51,81.745166 61.745166,71 75,71 L139.5,71 C152.754834,71 163.5,81.745166 163.5,95 C163.5,96.1531285 163.418676,97.2872627 163.26145,98.3969801 C163.743704,100.433483 164,102.566815 164,104.76441 L164,180.756105 Z" id="path-1"></path>
        <filter x="-2.1%" y="-2.4%" width="104.2%" height="104.9%" filterUnits="objectBoundingBox" id="filter-2">
            <feOffset dx="0" dy="-13" in="SourceAlpha" result="shadowOffsetInner1"></feOffset>
            <feComposite in="shadowOffsetInner1" in2="SourceAlpha" operator="arithmetic" k2="-1" k3="1" result="shadowInnerInner1"></feComposite>
            <feColorMatrix values="0 0 0 0 0   0 0 0 0 0   0 0 0 0 0  0 0 0 0.5 0" type="matrix" in="shadowInnerInner1"></feColorMatrix>
        </filter>
    </defs>
    <g id="favicon" stroke="none" stroke-width="1" fill="none" fill-rule="evenodd">
        <g id="Combined-Shape" fill-rule="nonzero">
            <use fill="#B15E4A" xlink:href="#path-1"></use>
            <use fill="black" fill-opacity="1" filter="url(#filter-2)" xlink:href="#path-1"></use>
        </g>
    </g>
</svg>