<?xml version="1.0" encoding="utf-8"?>
<!-- Generator: Adobe Illustrator 22.1.0, SVG Export Plug-In . SVG Version: 6.00 Build 0)  -->
<svg version="1.1" id="Layer_1" xmlns="http://www.w3.org/2000/svg" xmlns:xlink="http://www.w3.org/1999/xlink" x="0px" y="0px"
	 viewBox="0 0 575 162.9" style="enable-background:new 0 0 575 162.9;" xml:space="preserve">
<style type="text/css">
	.st0{fill:#00AAFF;}
	.st1{fill:#555555;}
</style>
<g>
	<g>
		<path class="st0" d="M556.9,8.3c-0.7-0.2-1.5,0.1-1.9,0.7l-42.2,63.6c-0.5,0.7-0.3,1.7,0.4,2.3c0.7,0.6,1.7,0.5,2.3-0.1l27-27.6
			V100l-81.5-53.8c-0.5-0.4-1.2-0.4-1.8-0.1c-0.6,0.3-0.9,0.9-0.9,1.5v101.3c0,0.8,0.5,1.4,1.2,1.7c0.2,0.1,0.3,0.1,0.5,0.1
			c0.6,0,1.1-0.3,1.4-0.8L500,93.2c0.5-0.7,0.4-1.7-0.3-2.3c-0.7-0.6-1.6-0.6-2.3,0l-23.5,21V73.3l82,39.6c0,0,0,0,0,0
			c0.2,0,0.3,0.1,0.5,0.1c0.3,0,0.6-0.1,0.8-0.2c0.6-0.3,0.9-0.9,0.9-1.5V9.9C558.1,9.2,557.6,8.5,556.9,8.3z"/>
	</g>
	<g>
		<g>
			<path class="st1" d="M58.6,134V49.4h7.2v98.9h-9.2L22.5,63.6v84.7h-7.2V49.4h9.2L58.6,134z"/>
			<path class="st1" d="M129.7,147.8c0,0-8.5,1.8-16.5,1.8c-14.3,0-24-9.7-24-21.9V98.1c0-12.1,9.5-21.9,23.9-21.9h1.7
				c10.5,0,20.9,9.2,20.9,19.6v2.3c0,8.8-5.8,14-15.5,17.7l-24.4,9.2v2.4c0,8.9,7.6,16.4,17.4,16.4c7.6,0,13.3-1.1,16.7-2.3V147.8z
				 M95.6,118l25-9.3c5.7-2.1,8.6-5.5,8.6-9.7v-1.7c0-7.9-8.1-15.1-15.8-15.1h-0.6c-9.7,0-17.2,7.9-17.2,16.8V118z"/>
			<path class="st1" d="M175.4,106.3L191,77.6h7.9l-19.5,34.5l20.2,36.2H192L175.4,118l-16.5,30.2h-7.8l20.2-36.2L152,77.6h7.8
				L175.4,106.3z"/>
			<path class="st1" d="M218.9,50.8h8.6v9.9h-8.6V50.8z M219.9,77.6h6.8v57.5c0,3.7,2.8,7.2,6.6,7.8v6.1
				c-7.6-0.3-13.4-6.5-13.4-14.4V77.6z"/>
			<path class="st1" d="M295.8,147.8c0,0-8.5,1.8-16.5,1.8c-14.3,0-24-9.7-24-21.9V98.1c0-12.1,9.5-21.9,23.9-21.9h1.7
				c10.5,0,20.9,9.2,20.9,19.6v2.3c0,8.8-5.8,14-15.5,17.7l-24.4,9.2v2.4c0,8.9,7.6,16.4,17.4,16.4c7.6,0,13.3-1.1,16.7-2.3V147.8z
				 M261.7,118l25-9.3c5.6-2.1,8.6-5.5,8.6-9.7v-1.7c0-7.9-8.1-15.1-15.8-15.1H279c-9.7,0-17.2,7.9-17.2,16.8V118z"/>
			<path class="st1" d="M363.4,99.2c0-9.2-7.1-17-16-17c-9.3,0-17.9,7.2-17.9,16.4v49.6h-6.6V77.6h6.6V85c3.7-4.7,11.4-8.8,18.8-8.8
				c11.9,0,21.8,9.9,21.8,21.9V135c0,3.8,2.3,7.2,5.6,7.9v6.1c-7.8-0.3-12.3-6.5-12.3-14.4V99.2z"/>
			<path class="st1" d="M388.4,77.6h10.5V57.9h6.6v19.8h18.1v6.1h-18.1v51.4c0,3.7,3,7.2,6.8,7.8v6.1c-7.8-0.3-13.4-6.5-13.4-14.4
				V83.7h-10.5V77.6z"/>
		</g>
	</g>
</g>
</svg>
