<svg id="Layer_1" data-name="Layer 1" xmlns="http://www.w3.org/2000/svg" xmlns:xlink="http://www.w3.org/1999/xlink" viewBox="0 0 438.67 414.81"><defs><style>.cls-1{fill:none;}.cls-2{clip-path:url(#clip-path);}.cls-3{fill:url(#linear-gradient);}.cls-4{fill:url(#linear-gradient-2);}.cls-5{fill:url(#linear-gradient-3);}.cls-6{fill:url(#linear-gradient-4);}.cls-7{fill:url(#linear-gradient-5);}.cls-8{fill:url(#linear-gradient-6);}.cls-9{fill:url(#linear-gradient-7);}.cls-10{fill:url(#linear-gradient-8);}.cls-11{fill:url(#linear-gradient-9);}.cls-12{fill:url(#linear-gradient-10);}.cls-13{fill:url(#linear-gradient-11);}</style><clipPath id="clip-path"><path class="cls-1" d="M219.5,65C300.28,65,366,128.93,366,207.5S300.28,350,219.5,350,73,286.08,73,207.5,138.72,65,219.5,65ZM152.11,314.48l38.6-16,3.09-2c.91-.4,2.07-1.38,2.1-2l.23-5.23c-3.94-.49-13.28-1.93-16.72-4.8-7.2-6-2.06-25-2.06-25a38.29,38.29,0,0,0-3.09,11,55.3,55.3,0,0,0,0,14c-3.08-1-5.14-6-5.14-6a47.75,47.75,0,0,1-2.05-14c0-8,5.14-18,5.14-18s-5.14,5-6.17,15,2.06,18-6.17,14c-8-3.89-6.6-4.42-8.22-6-1-1-2.06-4-3.09-8s-7.54-11.88-9.25-21c-2.06-11,5.14-17,5.14-17a26.76,26.76,0,0,0-9.25,12c-3.09,8,1,9,1,9s-2.06,0-5.14-4c-1.61-2.09-1.54-3.35-1.1-4.09a2.21,2.21,0,0,1,1.1-.91,22,22,0,0,0,1-2.41,10.19,10.19,0,0,1,.6-2.93A3.25,3.25,0,0,0,133,229a7.39,7.39,0,0,1,2.18-4.78,5.85,5.85,0,0,0,1.5-4.73l0,0a17.49,17.49,0,0,1-2.89,2.3,7,7,0,0,0-1.37,1.24l-5.51,5.83a8.38,8.38,0,0,1-.74.72.43.43,0,0,1-.38,0,.35.35,0,0,1-.09-.53c.93-1.18,1.88-2.35,2.82-3.53.29-.37.71-.66.79-1.17.84-.86,1.69-1.71,2.53-2.56a1.23,1.23,0,0,0,1.12-.43q2.11-2,4.22-4a5.49,5.49,0,0,0,1.48-2.67c.71-3,2.21-5.59,3.29-8.44a2,2,0,0,1,.76,2.33,7.26,7.26,0,0,1-.6,1.3c-.44.86-.9,1.7-1.33,2.56-.13.24-.19.56.14.7a.58.58,0,0,0,.71-.31,28.74,28.74,0,0,1,4.28-5.55l.23-.36c1.62-3.76,3.61-7.41,3.66-11.64a8,8,0,0,1,.61-3.1A8.91,8.91,0,0,0,151,189c.1-1.57.18-3.14.26-4.71a6.15,6.15,0,0,0-.09-1.13c-.51-2.74.55-5.13,1.9-7.43.39-.66.64-1.16.19-1.86a1.83,1.83,0,0,1,.37-2.27,12.46,12.46,0,0,0,1.73-3.26,1.53,1.53,0,0,0,0-1.38c2.17-3.74,4.18-7.57,6.67-11.12a53.43,53.43,0,0,1,3.92-5.55.44.44,0,0,0,.36-.65,3.33,3.33,0,0,1,.92-1.39c-.43-.72-.08-1.32.37-1.87,1.75-2.13,3.52-4.26,5.29-6.39.17-.21.39-.4.58-.6,1.66-1.74,3.39-3.44,5-5.25a46.25,46.25,0,0,1,4.16-4.24,50.32,50.32,0,0,1,13.25-8.82c1.29-.56,2.6-1.06,3.87-1.64a37.71,37.71,0,0,1,5.4-1.73,4.53,4.53,0,0,1,3.48.14,1,1,0,0,0,.62.16c.27-.91,1.79-2,7.1-2.55a43.77,43.77,0,0,1,5.45-.17,100.08,100.08,0,0,1,18.67,2.53c2.77.62,5.44,1.3,7.91,2l2.2.64a38.88,38.88,0,0,1,10.81,5.43h0a92.49,92.49,0,0,1,10.17,8.57,17.8,17.8,0,0,1,2,2.31c.5.66,1,1.41,1.56,2.23.26.4.53.83.79,1.27,2.36,3.94,4.54,9,4.58,13.22a10.24,10.24,0,0,1-.06,1.37c.43.8.85,1.61,1.24,2.43s.76,1.65,1.1,2.5c.21.51,2.35,6.14,2.48,6.67l10.28,16c1,1,2.53,4.84,3.32,6.92a.69.69,0,0,0,.05.13,38.8,38.8,0,0,1,2,5.84c.09.32.16.63.24.94.76,2.39,1.48,4.76,1.83,6.12l0,.14,0,.11c.69,2.8,2.75,14.8.69,24.8-.24,1.19-.5,2.25-.77,3.2l-.09.52a101.06,101.06,0,0,0-1.56,11.38c-.09,2-.1,4-.15,5.94a20.15,20.15,0,0,1-.79,5.06,13.32,13.32,0,0,1-4.49,6.8c-.81.66-1.67,1.26-2.51,1.88a9.59,9.59,0,0,1-2.53,1.34,24.66,24.66,0,0,1-10.36,1.78h-.17a130.63,130.63,0,0,1-21.29-1.09l-.39-.05c0,.08-.09.15-.13.24a18.23,18.23,0,0,0-1.88,6.63,40.3,40.3,0,0,0-.18,4.37c0,5,0,7,2.06,9l.35.4c2.47,2.59,6.84,3.6,6.84,3.6s29.25,7,42,10.46c25.08-22.91,40.77-55.43,40.77-91.46,0-69.2-57.88-125.5-129-125.5s-129,56.3-129,125.5C90.48,252.69,115.17,292.38,152.11,314.48Zm16.45-167.16a6.45,6.45,0,0,1-.52.63A6.45,6.45,0,0,0,168.56,147.32Z"/></clipPath><linearGradient id="linear-gradient" x1="764.19" y1="-577.11" x2="906.17" y2="-568.55" gradientTransform="matrix(0.01, 1, 1.35, -0.01, 798.38, -490.55)" gradientUnits="userSpaceOnUse"><stop offset="0.12" stop-color="#ba6954"/><stop offset="0.58" stop-color="#bd955a"/><stop offset="0.92" stop-color="#dfc9a2"/></linearGradient><linearGradient id="linear-gradient-2" x1="769.17" y1="-458.79" x2="910.93" y2="-450.25" gradientTransform="matrix(-0.32, 0.95, 1.29, 0.38, 894.96, -334.1)" xlink:href="#linear-gradient"/><linearGradient id="linear-gradient-3" x1="728.2" y1="-345.71" x2="868.86" y2="-337.23" gradientTransform="matrix(-0.62, 0.82, 1.1, 0.73, 935.18, -157.36)" xlink:href="#linear-gradient"/><linearGradient id="linear-gradient-4" x1="645.34" y1="-248.56" x2="784.4" y2="-240.18" gradientTransform="matrix(-0.86, 0.6, 0.81, 1.02, 915.11, 22.36)" xlink:href="#linear-gradient"/><linearGradient id="linear-gradient-5" x1="528.49" y1="-176.39" x2="666.04" y2="-168.1" gradientTransform="matrix(-1.01, 0.32, 0.43, 1.2, 836.72, 187.49)" xlink:href="#linear-gradient"/><linearGradient id="linear-gradient-6" x1="388.64" y1="-135.87" x2="525.39" y2="-127.63" gradientTransform="matrix(-1.07, 0.01, 0.02, 1.27, 707.67, 321.84)" xlink:href="#linear-gradient"/><linearGradient id="linear-gradient-7" x1="239.05" y1="-130.8" x2="376.06" y2="-122.55" gradientTransform="matrix(-1.02, -0.3, -0.4, 1.21, 540.61, 412.28)" xlink:href="#linear-gradient"/><linearGradient id="linear-gradient-8" x1="94.15" y1="-161.8" x2="232.33" y2="-153.48" gradientTransform="matrix(-0.87, -0.58, -0.78, 1.03, 351.88, 449.95)" xlink:href="#linear-gradient"/><linearGradient id="linear-gradient-9" x1="-31.87" y1="-226.2" x2="107.94" y2="-217.78" gradientTransform="matrix(-0.64, -0.8, -1.09, 0.76, 159.95, 431.15)" xlink:href="#linear-gradient"/><linearGradient id="linear-gradient-10" x1="-126.41" y1="-318.16" x2="14.83" y2="-309.65" gradientTransform="matrix(-0.34, -0.95, -1.28, 0.4, -16.38, 357.74)" xlink:href="#linear-gradient"/><linearGradient id="linear-gradient-11" x1="-179.87" y1="-429.08" x2="-37.9" y2="-420.53" gradientTransform="matrix(-0.01, -1, -1.35, 0.01, -159.85, 236.9)" xlink:href="#linear-gradient"/></defs><title>Artboard 3</title><g class="cls-2"><path class="cls-3" d="M132.91,418.32c51.15-.55,92.26-32.83,91.81-72.1s-42.28-70.66-93.43-70.11-290.83,35.55-290.38,74.82S81.76,418.87,132.91,418.32Z"/><path class="cls-4" d="M114.5,387.19c48.82,14.85,98.17-3.49,110.22-41S207,266.31,158.13,251.46s-287.88-53.61-299.93-16.13S65.67,372.34,114.5,387.19Z"/><path class="cls-5" d="M106.87,352.06c41.72,28.8,94.48,26.18,117.85-5.84s8.49-81.34-33.22-110.14S-65.26,98.56-88.63,130.59,65.16,323.26,106.87,352.06Z"/><path class="cls-6" d="M110.79,316.35c30.52,39.93,81.53,53.3,113.93,29.87s33.92-74.8,3.39-114.73S27.61,23.52-4.79,47,80.26,276.42,110.79,316.35Z"/><path class="cls-7" d="M125.85,283.57c16.35,47.15,60.61,75.2,98.87,62.65s56-61,39.67-108.1S139.77-19.93,101.51-7.38,109.5,236.42,125.85,283.57Z"/><path class="cls-8" d="M150.59,256.91c.57,49.76,33.76,89.74,74.13,89.31s72.64-41.13,72.07-90.88S260.25-27.55,219.88-27.11,150,207.16,150.59,256.91Z"/><path class="cls-9" d="M182.59,239c-15.27,47.5,3.6,95.5,42.13,107.22s82.15-17.28,97.42-64.77,55.11-280,16.58-291.74S197.86,191.51,182.59,239Z"/><path class="cls-10" d="M218.71,231.59c-29.6,40.58-26.91,91.9,6,114.63s83.62,8.26,113.22-32.32S479.32,64.15,446.4,41.42,248.32,191,218.71,231.59Z"/><path class="cls-11" d="M255.42,235.39c-41,29.7-54.79,79.31-30.7,110.83s76.9,33,118,3.3,213.8-195,189.71-226.55S296.47,205.7,255.42,235.39Z"/><path class="cls-12" d="M289.13,250.05C240.66,266,211.82,309,224.72,346.22s62.66,54.49,111.13,38.59,265.3-121.22,252.4-158.44S337.6,234.15,289.13,250.05Z"/><path class="cls-13" d="M316.53,274.11c-51.15.56-92.26,32.84-91.81,72.11s42.28,70.65,93.43,70.1S609,380.78,608.53,341.51,367.68,273.56,316.53,274.11Z"/></g></svg>