<svg id="Layer_1" data-name="Layer 1" xmlns="http://www.w3.org/2000/svg" xmlns:xlink="http://www.w3.org/1999/xlink" viewBox="0 0 443 439"><defs><style>.cls-1{fill:none;}.cls-2{clip-path:url(#clip-path);}.cls-3{fill:url(#linear-gradient);}.cls-4{fill:url(#linear-gradient-2);}.cls-5{fill:url(#linear-gradient-3);}.cls-6{fill:url(#linear-gradient-4);}</style><clipPath id="clip-path"><path class="cls-1" d="M222,86.5C143.42,86.5,79.5,150.43,79.5,229S143.42,371.5,222,371.5,364.5,307.58,364.5,229,300.58,86.5,222,86.5ZM287.55,336,250,320l-3-2c-.89-.4-2-1.38-2-2l-.22-5.23c3.82-.49,12.91-1.93,16.26-4.8,7-6,2-25,2-25a39.14,39.14,0,0,1,3,11,56.39,56.39,0,0,1,0,14c3-1,5-6,5-6a48.83,48.83,0,0,0,2-14c0-8-5-18-5-18s5,5,6,15-2,18,6,14c7.77-3.89,6.42-4.42,8-6,1-1,2-4,3-8s7.34-11.88,9-21c2-11-5-17-5-17a26.63,26.63,0,0,1,9,12c3,8-1,9-1,9s2,0,5-4c1.57-2.09,1.49-3.35,1.07-4.09A2.16,2.16,0,0,0,308,257a22.68,22.68,0,0,1-.95-2.41,10.51,10.51,0,0,0-.58-2.93,3.46,3.46,0,0,1-.32-1.19,7.41,7.41,0,0,0-2.11-4.78,6,6,0,0,1-1.46-4.73l0,0a16.89,16.89,0,0,0,2.81,2.3,6.76,6.76,0,0,1,1.33,1.24l5.36,5.83a8.15,8.15,0,0,0,.72.72.41.41,0,0,0,.37,0,.36.36,0,0,0,.09-.53L310.55,247c-.29-.37-.7-.66-.77-1.17l-2.46-2.56a1.18,1.18,0,0,1-1.09-.43q-2.07-2-4.1-4a5.44,5.44,0,0,1-1.45-2.67c-.69-3-2.15-5.59-3.2-8.44a2.08,2.08,0,0,0-.74,2.33,7.94,7.94,0,0,0,.58,1.3c.43.86.88,1.7,1.3,2.56.12.24.18.56-.14.7a.56.56,0,0,1-.69-.31,28.14,28.14,0,0,0-4.16-5.55l-.23-.36c-1.57-3.76-3.51-7.41-3.56-11.64a8,8,0,0,0-.59-3.1,9.12,9.12,0,0,1-.63-3.1c-.09-1.57-.18-3.14-.26-4.71a6.17,6.17,0,0,1,.1-1.13c.49-2.74-.54-5.13-1.85-7.43-.38-.66-.63-1.16-.19-1.86a1.87,1.87,0,0,0-.36-2.27,12.6,12.6,0,0,1-1.68-3.26,1.56,1.56,0,0,1,0-1.38c-2.11-3.74-4.07-7.57-6.48-11.12a55.69,55.69,0,0,0-3.82-5.55.44.44,0,0,1-.35-.65,3.46,3.46,0,0,0-.89-1.39,1.54,1.54,0,0,0-.36-1.87l-5.15-6.39c-.17-.21-.38-.4-.57-.6-1.61-1.74-3.29-3.44-4.83-5.25a45.08,45.08,0,0,0-4.05-4.24A48.63,48.63,0,0,0,245,142.62c-1.25-.56-2.52-1.06-3.76-1.64a35.84,35.84,0,0,0-5.25-1.73,4.31,4.31,0,0,0-3.39.14.93.93,0,0,1-.6.16c-.26-.91-1.75-2-6.91-2.55a41.37,41.37,0,0,0-5.3-.17,94.73,94.73,0,0,0-18.15,2.53c-2.7.62-5.3,1.3-7.7,2l-2.14.64a37.22,37.22,0,0,0-10.51,5.43h0a89.68,89.68,0,0,0-9.9,8.57,17.29,17.29,0,0,0-2,2.31c-.49.66-1,1.41-1.52,2.23-.25.4-.51.83-.77,1.27-2.29,3.94-4.42,9-4.46,13.22a12.19,12.19,0,0,0,.07,1.37c-.42.8-.83,1.61-1.21,2.43s-.74,1.65-1.08,2.5c-.2.51-2.28,6.14-2.4,6.67l-10,16c-1,1-2.46,4.84-3.23,6.92a.69.69,0,0,1-.05.13,41,41,0,0,0-2,5.84c-.08.32-.15.63-.23.94-.74,2.39-1.44,4.76-1.78,6.12l0,.14,0,.11C140,227,138,239,140,249c.24,1.19.49,2.25.75,3.2l.09.52a101,101,0,0,1,1.51,11.38c.1,2,.1,4,.15,5.94a20.59,20.59,0,0,0,.77,5.06,13.36,13.36,0,0,0,4.37,6.8c.78.66,1.62,1.26,2.44,1.88a9.18,9.18,0,0,0,2.46,1.34,23.4,23.4,0,0,0,10.08,1.78h.16a123.64,123.64,0,0,0,20.71-1.09l.38-.05c0,.08.09.15.13.24a18.7,18.7,0,0,1,1.83,6.63A42.82,42.82,0,0,1,186,297c0,5,0,7-2,9-.07.09-.19.23-.35.4C181.26,309,177,310,177,310s-28.44,7-40.84,10.46A125.47,125.47,0,1,1,287.55,336Zm-16-167.16a6.37,6.37,0,0,0,.51.63A6.37,6.37,0,0,1,271.55,168.82Z"/></clipPath><linearGradient id="linear-gradient" x1="319.63" y1="167.77" x2="323.51" y2="341.74" gradientTransform="translate(201.73 -185.26) rotate(30.69)" gradientUnits="userSpaceOnUse"><stop offset="0.12" stop-color="#00464f"/><stop offset="0.58" stop-color="#46797a"/><stop offset="0.93" stop-color="#acc6c8"/></linearGradient><linearGradient id="linear-gradient-2" x1="245.83" y1="206.91" x2="249.71" y2="380.88" gradientTransform="translate(104.97 -129.78) rotate(18.56)" xlink:href="#linear-gradient"/><linearGradient id="linear-gradient-3" x1="257.34" y1="224.96" x2="261.22" y2="398.93" gradientTransform="translate(-46.4 -10.78) rotate(-1.8)" xlink:href="#linear-gradient"/><linearGradient id="linear-gradient-4" x1="296.32" y1="247.11" x2="300.2" y2="421.08" gradientTransform="translate(-160.94 128.84) rotate(-18.93)" xlink:href="#linear-gradient"/></defs><title>Artboard 1</title><g class="cls-2"><path class="cls-3" d="M546.84,329c-24.52,41.32-332.66-105.56-374-130.09A87,87,0,0,1,261.67,49.27C303,73.8,571.37,287.67,546.84,329Z"/><path class="cls-4" d="M468,314.08c-15.29,45.55-347.42-33.3-393-48.59a87,87,0,1,1,55.38-164.95C176,115.83,483.32,268.53,468,314.08Z"/><path class="cls-5" d="M460.46,296.76c1.5,48-337.31,89.63-385.34,91.13A87,87,0,0,1,69.67,214C117.69,212.47,459,248.74,460.46,296.76Z"/><path class="cls-6" d="M458.07,281.74c15.59,45.45-295.94,185-341.39,200.59A87,87,0,0,1,60.24,317.74C105.69,302.16,442.49,236.29,458.07,281.74Z"/></g></svg>