<?xml version="1.0" encoding="UTF-8" standalone="no"?>
<svg width="331px" height="196px" viewBox="0 0 331 196" version="1.1" xmlns="http://www.w3.org/2000/svg" xmlns:xlink="http://www.w3.org/1999/xlink">
    <!-- Generator: Sketch 45 (43475) - http://www.bohemiancoding.com/sketch -->
    <title>Group 3</title>
    <desc>Created with Sketch.</desc>
    <defs>
        <linearGradient x1="50%" y1="31.3012303%" x2="50%" y2="100%" id="linearGradient-1">
            <stop stop-color="#6CCFF7" offset="0%"></stop>
            <stop stop-color="#4EA2D0" offset="100%"></stop>
        </linearGradient>
        <polygon id="path-2" points="0.5236 0.073 22.8076 0.073 22.8076 39.2074 0.5236 39.2074"></polygon>
        <polygon id="path-4" points="0 20.9465 0 0.7455 14.2867 0.7455 14.2867 20.9465"></polygon>
        <polygon id="path-6" points="0.4712 0.073 22.5232 0.073 22.5232 38.9392 0.4712 38.9392"></polygon>
        <polygon id="path-8" points="15.046 0.2318 15.046 20.4798 0.8902 20.4798 0.8902 0.2318 15.046 0.2318"></polygon>
    </defs>
    <g id="Page-1" stroke="none" stroke-width="1" fill="none" fill-rule="evenodd">
        <g id="Logo" transform="translate(-110.000000, -373.000000)">
            <g id="Group-3" transform="translate(110.000000, 373.000000)">
                <path d="M279.292942,194.98375 C279.722521,194.994562 280.153435,195 280.585619,195 C308.428713,195 331,172.428713 331,144.585619 C331,116.742525 308.428713,94.1712372 280.585619,94.1712372 C272.023536,94.1712372 263.959973,96.3056588 256.897991,100.071443 C257.453856,97.7646573 257.748335,95.3559986 257.748335,92.8785607 C257.748335,75.9823242 244.051229,62.2852181 227.154992,62.2852181 C220.870982,62.2852181 215.029484,64.1798403 210.170565,67.4290195 C203.978515,29.3252435 170.91927,0.236748698 131.066043,0.236748698 C86.8026627,0.236748698 50.9201032,36.1193081 50.9201032,80.3826884 C50.9201032,84.7847194 51.2749987,89.1038602 51.9577385,93.3130595 C51.7557742,93.3106573 51.5535242,93.3094529 51.3509954,93.3094529 C23.5079013,93.3094529 0.936613945,116.073657 0.936613945,144.154726 C0.936613945,172.235796 23.5079013,195 51.3509954,195 C51.4947674,195 51.6383989,194.999393 51.7818875,194.998181 L279.292942,195 L279.292942,194.98375 Z" id="Combined-Shape" fill="url(#linearGradient-1)"></path>
                <rect id="Rectangle-8" fill="#FFFFFF" x="86.2004798" y="127" width="26" height="68"></rect>
                <ellipse id="Oval" fill="#65BCE6" cx="99.5" cy="122.878118" rx="16.5" ry="7.12188242"></ellipse>
                <rect id="Rectangle-8" fill="#FFFFFF" x="160" y="89" width="26" height="106.021656"></rect>
                <rect id="Rectangle-8" fill="#FFFFFF" x="136" y="89" width="74.7604565" height="24.828834"></rect>
                <g id="Group" style="mix-blend-mode: hard-light;" transform="translate(72.000000, 38.000000)">
                    <g id="Page-1">
                        <path d="M40.4777,80.9571 C40.5787,80.8941 40.6857,80.8371 40.7927,80.7801 C40.6857,80.8501 40.5847,80.9191 40.4777,80.9761 C40.1817,81.1651 39.8857,81.3291 39.5827,81.4801 C39.8787,81.2971 40.1747,81.1211 40.4777,80.9571" id="Fill-1" fill="#FEFEFE"></path>
                        <g id="Group-7" transform="translate(26.000000, 0.927500)">
                            <mask id="mask-3" fill="white">
                                <use xlink:href="#path-2"></use>
                            </mask>
                            <g id="Clip-6"></g>
                            <path d="M12.8906,39.2074 L22.8076,35.2314 C15.3166,19.3634 0.5236,0.0724 0.5236,0.0724 L0.5236,19.8824 C0.5236,19.8824 8.5026,30.2894 12.8906,39.2074" id="Fill-5" fill="#C1E6F2" mask="url(#mask-3)"></path>
                        </g>
                        <g id="Group-10" transform="translate(0.000000, 34.927500)">
                            <mask id="mask-5" fill="white">
                                <use xlink:href="#path-4"></use>
                            </mask>
                            <g id="Clip-9"></g>
                            <path d="M11.3427,14.0595 C11.3427,11.6935 12.5517,8.4195 14.2867,4.9385 L4.4707,0.7455 C1.8047,6.3095 -0.0003,11.4845 -0.0003,15.3035 C-0.0003,17.2415 0.2197,19.1265 0.6137,20.9465 L11.5337,16.4635 C11.4097,15.6805 11.3427,14.8775 11.3427,14.0595" id="Fill-8" fill="#C1E6F2" mask="url(#mask-5)"></path>
                        </g>
                        <path d="M11.534,51.3909 L0.614,55.8739 C2.11,62.7669 6.278,68.6639 11.989,72.4139 L17.832,61.4299 C14.533,59.1219 12.194,55.5369 11.534,51.3909" id="Fill-11" fill="#8DD5EA"></path>
                        <g id="Group-15" transform="translate(4.000000, 0.927500)">
                            <mask id="mask-7" fill="white">
                                <use xlink:href="#path-6"></use>
                            </mask>
                            <g id="Clip-14"></g>
                            <path d="M22.5232,19.8822 L22.5232,0.0722 C22.5232,0.0722 8.0292,18.9722 0.4712,34.7462 L10.2872,38.9392 C14.7012,30.0822 22.5232,19.8822 22.5232,19.8822" id="Fill-13" fill="#8DD5EA" mask="url(#mask-7)"></path>
                        </g>
                        <path d="M26.5232,64.1676 C23.2892,64.1676 20.2942,63.1536 17.8322,61.4306 L11.9892,72.4136 C16.1642,75.1546 21.1552,76.7546 26.5232,76.7546 C31.3982,76.7546 35.9622,75.4336 39.8872,73.1386 L34.5252,61.8866 C32.2012,63.3306 29.4602,64.1676 26.5232,64.1676" id="Fill-16" fill="#71C0D2"></path>
                        <g id="Group-20" transform="translate(38.000000, 35.927500)">
                            <mask id="mask-9" fill="white">
                                <use xlink:href="#path-8"></use>
                            </mask>
                            <g id="Clip-19"></g>
                            <path d="M10.8072,0.2318 L0.8902,4.2078 C2.5542,7.5878 3.7042,10.7548 3.7042,13.0598 C3.7042,13.9678 3.6192,14.8558 3.4662,15.7208 L14.3162,20.4798 C14.7892,18.4968 15.0462,16.4308 15.0462,14.3038 C15.0462,10.5958 13.3452,5.6098 10.8072,0.2318" id="Fill-18" fill="#8DD5EA" mask="url(#mask-9)"></path>
                        </g>
                        <path d="M34.5253,61.8863 L39.8873,73.1383 C46.0433,69.5393 50.6153,63.5323 52.3163,56.4073 L41.4663,51.6483 C40.7023,55.9673 38.1153,59.6543 34.5253,61.8863" id="Fill-21" fill="#C1E6F2"></path>
                        <path d="M26.5232,45.0931 L14.2872,39.8661 C12.5512,43.3471 11.3422,46.6211 11.3422,48.9871 C11.3422,49.8051 11.4092,50.6081 11.5342,51.3911 L26.4262,45.2751 L26.5232,45.0931 Z" id="Fill-23" fill="#DCF0F6"></path>
                        <path d="M26.5232,20.8097 C26.5232,20.8097 18.7012,31.0097 14.2872,39.8667 L26.5232,45.0927 L26.5232,20.8097 Z" id="Fill-25" fill="#C1E6F2"></path>
                        <polygon id="Fill-27" fill="#FEFEFE" points="26.6912 45.1668 26.5232 45.0928 26.5802 45.2128"></polygon>
                        <path d="M11.534,51.3909 C12.194,55.5369 14.533,59.1219 17.832,61.4299 L26.426,45.2759 L11.534,51.3909 Z" id="Fill-29" fill="#C1E6F2"></path>
                        <polygon id="Fill-31" fill="#FEFEFE" points="26.5801 45.2124 26.5231 45.0934 26.4261 45.2754"></polygon>
                        <path d="M26.6912,45.1668 L26.8702,45.0928 L26.6912,45.1668 L41.4662,51.6478 C41.6192,50.7838 41.7042,49.8958 41.7042,48.9868 C41.7042,46.6828 40.5542,43.5148 38.8902,40.1348 L26.5232,45.0928 L26.6912,45.1668 Z" id="Fill-33" fill="#C1E6F2"></path>
                        <path d="M26.5232,45.0931 L38.8902,40.1351 C34.5022,31.2161 26.5232,20.8101 26.5232,20.8101 L26.5232,45.0931 Z" id="Fill-35" fill="#DCF0F6"></path>
                        <path d="M26.5801,45.2124 L34.5251,61.8864 C38.1151,59.6544 40.7021,55.9674 41.4671,51.6484 L26.6911,45.1664 L26.5801,45.2124 Z" id="Fill-37" fill="#71C0D2"></path>
                        <path d="M26.4262,45.2756 L17.8322,61.4306 C20.2942,63.1536 23.2892,64.1676 26.5232,64.1676 C29.4612,64.1676 32.2012,63.3306 34.5252,61.8866 L26.5802,45.2126 L26.4262,45.2756 Z" id="Fill-39" fill="#8DD5EA"></path>
                    </g>
                </g>
            </g>
        </g>
    </g>
</svg>